<svg width="1440" height="490" viewBox="0 0 1440 490" fill="none" xmlns="http://www.w3.org/2000/svg">
<g opacity="0.2" filter="url(#filter0_f)">
<path d="M218.133 503.096C193.487 551.7 193.365 549.504 205.094 599.347C230.792 619.553 272.374 624.966 302.273 637.74C350.307 658.261 402.311 670.427 452.43 684.458C508.4 700.127 564.713 717.172 621.791 728.569C694.826 743.153 796.263 862.692 853.28 817.759C934.163 754.02 970.928 543.022 1049.09 476.047C1094.82 436.858 1145.89 386.792 1174.21 332.782C1198.56 286.356 1209.13 219.966 1156.29 191.612C1129.21 177.082 1075.32 165.665 1052.78 194.331C998.267 263.656 958.199 364.95 869.458 395.738C772.301 429.446 615.673 209.139 514.757 205.522C432.087 202.559 394.38 409.1 312.413 423.853C264.589 432.46 239.479 460.997 218.133 503.096Z" fill="#8810E7"/>
</g>
<g opacity="0.4" filter="url(#filter1_f)">
<path d="M916.195 447.038C893.384 481.229 893.489 479.573 897.807 517.952C915.241 535.386 945.897 543.165 967.144 555.411C1001.28 575.083 1039.13 588.852 1075.41 603.851C1115.92 620.6 1156.57 638.41 1198.29 652.06C1251.68 669.525 1316.94 768.135 1363.66 739.594C1429.95 699.107 1476.38 544.385 1540.92 501.23C1578.68 475.98 1621.41 443.061 1647.46 405.15C1669.85 372.564 1683.71 323.792 1646.68 297.823C1627.71 284.516 1588.37 271.137 1568.92 290.585C1521.89 337.618 1482.8 409.887 1413.59 424.994C1337.81 441.533 1240.25 262.512 1165 250.762C1103.35 241.136 1056.61 392.436 993.901 396.14C957.315 398.301 935.953 417.423 916.195 447.038Z" fill="#00ADA3"/>
</g>
<g opacity="0.4" filter="url(#filter2_f)">
<path d="M313.511 910.684C352.104 924.826 350.47 925.112 386.761 911.9C399.612 890.858 399.973 859.233 406.885 835.705C417.989 797.905 422.481 757.874 428.539 719.089C435.303 675.776 443.068 632.085 446.535 588.322C450.971 532.324 531.494 445.732 492.776 407.017C437.852 352.099 276.551 343.303 219.446 290.711C186.032 259.938 143.997 226.138 101.028 209.719C64.0931 195.605 13.43 193.59 -3.1141 235.683C-11.592 257.253 -15.3565 298.634 8.11623 312.97C64.8812 347.64 144.309 368.653 175.251 432.385C209.127 502.16 58.0311 639.04 64.2856 714.947C69.4091 777.128 227.455 787.026 245.785 847.108C256.479 882.162 280.084 898.435 313.511 910.684Z" fill="#00ADA3"/>
</g>
<defs>
<filter id="filter0_f" x="-87.3662" y="-399.117" width="1614.34" height="1649.17" filterUnits="userSpaceOnUse" color-interpolation-filters="sRGB">
<feFlood flood-opacity="0" result="BackgroundImageFix"/>
<feBlend mode="normal" in="SourceGraphic" in2="BackgroundImageFix" result="shape"/>
<feGaussianBlur stdDeviation="125" result="effect1_foregroundBlur"/>
</filter>
<filter id="filter1_f" x="619" y="-246" width="1359.7" height="1359.7" filterUnits="userSpaceOnUse" color-interpolation-filters="sRGB">
<feFlood flood-opacity="0" result="BackgroundImageFix"/>
<feBlend mode="normal" in="SourceGraphic" in2="BackgroundImageFix" result="shape"/>
<feGaussianBlur stdDeviation="125" result="effect1_foregroundBlur"/>
</filter>
<filter id="filter2_f" x="-470" y="-113" width="1361.62" height="1309.67" filterUnits="userSpaceOnUse" color-interpolation-filters="sRGB">
<feFlood flood-opacity="0" result="BackgroundImageFix"/>
<feBlend mode="normal" in="SourceGraphic" in2="BackgroundImageFix" result="shape"/>
<feGaussianBlur stdDeviation="125" result="effect1_foregroundBlur"/>
</filter>
</defs>
</svg>
