<svg width="375" height="476" viewBox="0 0 375 476" fill="none" xmlns="http://www.w3.org/2000/svg">
<g opacity="0.2" filter="url(#filter0_f)">
<path d="M-65.7875 362.895C-77.4241 385.845 -77.4819 384.807 -71.9438 408.342C-59.8104 417.882 -40.1768 420.438 -26.0593 426.47C-3.37926 436.159 21.1753 441.903 44.8397 448.528C71.267 455.927 97.8561 463.975 124.807 469.356C159.291 476.242 207.186 532.684 234.108 511.469C272.298 481.373 289.657 381.747 326.562 350.124C348.156 331.62 372.267 307.981 385.642 282.479C397.138 260.558 402.126 229.211 377.178 215.823C364.393 208.963 338.946 203.572 328.303 217.107C302.566 249.84 283.647 297.668 241.746 312.205C195.872 328.121 121.918 224.099 74.2684 222.391C35.2347 220.992 17.4303 318.514 -21.2716 325.479C-43.8522 329.543 -55.7084 343.018 -65.7875 362.895Z" fill="#8810E7"/>
</g>
<g opacity="0.4" filter="url(#filter1_f)">
<path d="M263.814 336.427C253.043 352.571 253.093 351.789 255.132 369.91C263.363 378.142 277.838 381.815 287.87 387.597C303.987 396.886 321.861 403.387 338.99 410.469C358.118 418.377 377.31 426.787 397.01 433.232C422.219 441.478 453.03 488.038 475.093 474.562C506.389 455.446 528.316 382.391 558.787 362.015C576.616 350.093 596.791 334.549 609.092 316.649C619.666 301.263 626.209 278.234 608.725 265.973C599.766 259.69 581.192 253.373 572.009 262.556C549.801 284.763 531.348 318.886 498.666 326.019C462.885 333.828 416.821 249.3 381.29 243.752C352.183 239.207 330.112 310.646 300.504 312.395C283.229 313.415 273.143 322.444 263.814 336.427Z" fill="#00ADA3"/>
</g>
<g opacity="0.4" filter="url(#filter2_f)">
<path d="M-20.7534 555.349C-2.53105 562.027 -3.30278 562.162 13.8324 555.924C19.9004 545.988 20.0708 531.056 23.3343 519.947C28.5773 502.099 30.6985 483.198 33.5587 464.885C36.7528 444.434 40.4189 423.804 42.0558 403.141C44.1503 376.701 82.1707 335.815 63.8893 317.535C37.9562 291.604 -38.2047 287.451 -65.168 262.619C-80.945 248.089 -100.792 232.13 -121.081 224.377C-138.52 217.713 -162.442 216.762 -170.253 236.637C-174.256 246.822 -176.034 266.36 -164.951 273.129C-138.148 289.499 -100.645 299.421 -86.0354 329.513C-70.0401 362.458 -141.383 427.088 -138.429 462.929C-136.01 492.289 -61.3861 496.962 -52.7315 525.331C-47.682 541.882 -36.5367 549.566 -20.7534 555.349Z" fill="#00ADA3"/>
</g>
<defs>
<filter id="filter0_f" x="-341.992" y="-195.059" width="1026.15" height="1042.6" filterUnits="userSpaceOnUse" color-interpolation-filters="sRGB">
<feFlood flood-opacity="0" result="BackgroundImageFix"/>
<feBlend mode="normal" in="SourceGraphic" in2="BackgroundImageFix" result="shape"/>
<feGaussianBlur stdDeviation="125" result="effect1_foregroundBlur"/>
</filter>
<filter id="filter1_f" x="-8.47021" y="-122.758" width="905.92" height="905.92" filterUnits="userSpaceOnUse" color-interpolation-filters="sRGB">
<feFlood flood-opacity="0" result="BackgroundImageFix"/>
<feBlend mode="normal" in="SourceGraphic" in2="BackgroundImageFix" result="shape"/>
<feGaussianBlur stdDeviation="125" result="effect1_foregroundBlur"/>
</filter>
<filter id="filter2_f" x="-522.659" y="-59.957" width="906.829" height="882.298" filterUnits="userSpaceOnUse" color-interpolation-filters="sRGB">
<feFlood flood-opacity="0" result="BackgroundImageFix"/>
<feBlend mode="normal" in="SourceGraphic" in2="BackgroundImageFix" result="shape"/>
<feGaussianBlur stdDeviation="125" result="effect1_foregroundBlur"/>
</filter>
</defs>
</svg>
