<svg width="765" height="1433" viewBox="0 0 765 1433" fill="none" xmlns="http://www.w3.org/2000/svg">
<g opacity="0.2" filter="url(#filter0_f)">
<path d="M694.251 1128.58C729.292 1155.64 727.521 1155.4 769.081 1153.62C789.113 1136.18 799.755 1103.82 814.495 1081.9C838.175 1046.69 855.79 1007.04 874.607 969.177C895.621 926.892 917.785 884.543 935.559 840.726C958.301 784.658 1069.12 721.882 1041.93 669.548C1003.36 595.31 840.566 533.89 799 461.333C774.679 418.877 742.488 370.513 703.692 339.696C670.345 313.207 618.969 294.683 588.308 332.538C572.596 351.937 555.29 393.212 574.74 415.558C621.777 469.599 696.522 516.975 707.601 592.475C719.73 675.135 520.102 766.636 501.873 846.621C486.939 912.144 646.035 973.639 645.346 1041.29C644.944 1080.77 663.9 1105.15 694.251 1128.58Z" fill="#8810E7"/>
</g>
<defs>
<filter id="filter0_f" x="0.804443" y="0.421875" width="1415.54" height="1432.01" filterUnits="userSpaceOnUse" color-interpolation-filters="sRGB">
<feFlood flood-opacity="0" result="BackgroundImageFix"/>
<feBlend mode="normal" in="SourceGraphic" in2="BackgroundImageFix" result="shape"/>
<feGaussianBlur stdDeviation="125" result="effect1_foregroundBlur"/>
</filter>
</defs>
</svg>
