<svg width="639" height="1071" viewBox="0 0 639 1071" fill="none" xmlns="http://www.w3.org/2000/svg">
<g opacity="0.2" filter="url(#filter0_f)">
<path d="M-281.985 253.875C-325.4 262.543 -324.058 261.362 -350 293.881C-350 320.438 -332.577 349.711 -325.721 375.22C-314.706 416.2 -296.362 455.52 -280.155 494.572C-262.057 538.184 -244.665 582.706 -223.282 624.88C-195.922 678.845 -221.326 803.65 -164 817.5C-82.6805 837.147 70.529 754.674 152.548 770.958C200.54 780.486 258.155 787.957 306.871 778.926C348.746 771.163 396.448 744.572 388.024 696.591C383.707 672.004 363.935 631.852 334.31 631.852C262.666 631.852 177.857 657.128 113.635 615.916C43.3211 570.796 105.365 360.145 57 293.881C17.3803 239.599 -133.456 319.231 -184.036 274.293C-213.547 248.074 -244.381 246.368 -281.985 253.875Z" fill="#8810E7"/>
</g>
<defs>
<filter id="filter0_f" x="-600" y="0" width="1239" height="1070.55" filterUnits="userSpaceOnUse" color-interpolation-filters="sRGB">
<feFlood flood-opacity="0" result="BackgroundImageFix"/>
<feBlend mode="normal" in="SourceGraphic" in2="BackgroundImageFix" result="shape"/>
<feGaussianBlur stdDeviation="125" result="effect1_foregroundBlur"/>
</filter>
</defs>
</svg>
