<svg width="20" height="20" viewBox="0 0 20 20" fill="none" xmlns="http://www.w3.org/2000/svg">
<path d="M4.91719 18.4996H1.28906V6.81602H4.91719V18.4996ZM3.10117 5.22227C1.94102 5.22227 1 4.26133 1 3.10117C1 2.54391 1.22137 2.00947 1.61542 1.61542C2.00947 1.22137 2.54391 1 3.10117 1C3.65844 1 4.19288 1.22137 4.58692 1.61542C4.98097 2.00947 5.20234 2.54391 5.20234 3.10117C5.20234 4.26133 4.26094 5.22227 3.10117 5.22227ZM18.4961 18.4996H14.8758V12.8121C14.8758 11.4566 14.8484 9.71836 12.9895 9.71836C11.1031 9.71836 10.8141 11.191 10.8141 12.7145V18.4996H7.18984V6.81602H10.6695V8.40977H10.7203C11.2047 7.4918 12.3879 6.52305 14.1531 6.52305C17.825 6.52305 18.5 8.94102 18.5 12.0816V18.4996H18.4961Z" fill="#06021B"/>
</svg>
