<svg width="20" height="20" viewBox="0 0 20 20" fill="none" xmlns="http://www.w3.org/2000/svg">
<path d="M9.75682 5.50684C7.27245 5.50684 5.26855 7.51074 5.26855 9.99512C5.26855 12.4795 7.27245 14.4834 9.75682 14.4834C12.2412 14.4834 14.2451 12.4795 14.2451 9.99512C14.2451 7.51074 12.2412 5.50684 9.75682 5.50684ZM9.75682 12.9131C8.15136 12.9131 6.83886 11.6045 6.83886 9.99512C6.83886 8.38574 8.14745 7.07715 9.75682 7.07715C11.3662 7.07715 12.6748 8.38574 12.6748 9.99512C12.6748 11.6045 11.3623 12.9131 9.75682 12.9131ZM15.4756 5.32324C15.4756 5.90527 15.0068 6.37012 14.4287 6.37012C13.8467 6.37012 13.3818 5.90137 13.3818 5.32324C13.3818 4.74512 13.8506 4.27637 14.4287 4.27637C15.0068 4.27637 15.4756 4.74512 15.4756 5.32324ZM18.4482 6.38574C18.3818 4.9834 18.0615 3.74121 17.0342 2.71777C16.0107 1.69434 14.7685 1.37402 13.3662 1.30371C11.9209 1.22168 7.58886 1.22168 6.14355 1.30371C4.74511 1.37012 3.50293 1.69043 2.47558 2.71387C1.44824 3.7373 1.13184 4.97949 1.06152 6.38184C0.979492 7.82715 0.979492 12.1592 1.06152 13.6045C1.12793 15.0068 1.44824 16.249 2.47558 17.2725C3.50293 18.2959 4.7412 18.6162 6.14355 18.6865C7.58886 18.7686 11.9209 18.7686 13.3662 18.6865C14.7685 18.6201 16.0107 18.2998 17.0342 17.2725C18.0576 16.249 18.3779 15.0068 18.4482 13.6045C18.5302 12.1592 18.5302 7.83105 18.4482 6.38574ZM16.581 15.1553C16.2763 15.9209 15.6865 16.5107 14.917 16.8193C13.7646 17.2764 11.0303 17.1709 9.75682 17.1709C8.48339 17.1709 5.74511 17.2725 4.59667 16.8193C3.83105 16.5146 3.24121 15.9248 2.93261 15.1553C2.47558 14.0029 2.58105 11.2686 2.58105 9.99512C2.58105 8.72168 2.47949 5.9834 2.93261 4.83496C3.2373 4.06934 3.82714 3.47949 4.59667 3.1709C5.74902 2.71387 8.48339 2.81934 9.75682 2.81934C11.0303 2.81934 13.7685 2.71777 14.917 3.1709C15.6826 3.47559 16.2724 4.06543 16.581 4.83496C17.0381 5.9873 16.9326 8.72168 16.9326 9.99512C16.9326 11.2686 17.0381 14.0068 16.581 15.1553Z" fill="#06021B"/>
</svg>
