<svg width="20" height="20" viewBox="0 0 20 20" fill="none" xmlns="http://www.w3.org/2000/svg">
<path d="M17.9441 5.92711C17.9568 6.10477 17.9568 6.28246 17.9568 6.46012C17.9568 11.8789 13.8325 18.1225 6.29441 18.1225C3.97207 18.1225 1.81473 17.4499 0 16.2825C0.329961 16.3205 0.647187 16.3332 0.989844 16.3332C2.90605 16.3332 4.67004 15.686 6.07867 14.582C4.27664 14.5439 2.76648 13.3637 2.24617 11.7393C2.5 11.7773 2.75379 11.8027 3.02031 11.8027C3.38832 11.8027 3.75637 11.752 4.09898 11.6632C2.22082 11.2824 0.812148 9.6327 0.812148 7.64031V7.58957C1.35781 7.89414 1.99238 8.08449 2.66492 8.10984C1.56086 7.37379 0.837539 6.11746 0.837539 4.69613C0.837539 3.93473 1.04055 3.23676 1.3959 2.62762C3.41367 5.11492 6.44668 6.73926 9.84766 6.91695C9.78422 6.61238 9.74613 6.29516 9.74613 5.97789C9.74613 3.71898 11.5736 1.87891 13.8451 1.87891C15.0253 1.87891 16.0913 2.37383 16.84 3.17332C17.7664 2.99566 18.6547 2.65301 19.4416 2.18348C19.137 3.13527 18.4898 3.93477 17.6395 4.44234C18.4644 4.35355 19.2639 4.12508 19.9999 3.80785C19.4416 4.62 18.7436 5.34332 17.9441 5.92711Z" fill="#06021B"/>
</svg>
