<svg width="71" height="32" viewBox="0 0 71 32" fill="none" xmlns="http://www.w3.org/2000/svg">
<g clip-path="url(#clip0)">
<path d="M15.2078 20.0783C15.2078 20.0783 15.7003 19.9529 15.4776 19.3348C15.2548 18.7168 15.0352 18.9866 14.4956 18.3936C13.956 17.8007 14.069 17.2391 13.1843 17.4525C12.2995 17.6658 10.8094 17.1827 9.48229 17.8634C8.15523 18.5442 4.57562 19.225 3.83523 20.4109C3.09484 21.5968 1.74582 21.7881 1.83994 23.2344C1.93406 24.6807 2.64621 26.1364 3.11994 26.9803C3.11994 26.9803 -0.977316 29.2423 -0.393787 30.0517C-0.393787 30.0517 1.2219 31.8242 1.727 31.9654C2.27758 32.0556 2.83916 32.0556 3.38974 31.9654C3.4368 31.934 3.86347 31.1748 1.98112 31.1591C1.87904 30.8255 1.72897 30.5084 1.53562 30.218C1.53562 30.218 3.80072 29.3646 4.52857 28.3042C4.8977 27.7717 5.06966 27.1271 5.01484 26.4815C5.17518 26.7661 5.43577 26.9809 5.74582 27.0838C5.98997 27.201 6.21436 27.3556 6.41092 27.5419C6.0219 28.3262 5.53563 29.3176 5.36621 29.7129C5.05249 30.4093 4.98661 31.3568 4.78268 31.5952C4.57876 31.8336 4.81406 32.0846 5.46033 32.0313C6.10661 31.978 7.23288 32.1317 7.39288 32.0313C7.55288 31.9309 7.96072 31.5011 7.18582 30.6948C6.41092 29.8885 7.55288 29.0509 7.56229 29.0446C7.68778 29.2642 7.80072 29.4744 7.89798 29.6721C8.33406 30.5505 8.73876 30.7105 8.4219 31.0587C8.10504 31.407 8.07366 31.658 8.39053 31.7207C8.70739 31.7834 9.36935 31.7207 9.57641 31.7552C9.78347 31.7897 10.1443 31.1529 9.92464 30.8517C9.70504 30.5505 8.93641 28.0815 8.90504 27.4007C8.86621 26.6635 8.63941 25.9486 8.24621 25.3238C8.24621 25.3238 9.6517 25.1387 9.99366 24.7591C9.99366 24.7591 9.65484 26.058 10.4454 27.0054C11.236 27.9529 11.3866 27.8619 11.4744 28.8093C11.5623 29.7568 11.8384 29.3176 11.8227 30.3466C11.807 31.3756 10.7058 31.0085 11.0948 31.7207C11.189 31.8964 13.3725 31.8023 13.4697 31.7207C13.567 31.6391 13.7835 30.6132 13.2156 29.4274C12.6478 28.2415 12.5192 26.2148 12.1552 25.1387C11.8887 24.4244 11.7702 23.6634 11.807 22.9019C11.8384 22.5223 12.8988 21.0195 12.8988 21.0195C12.8988 21.0195 13.3694 21.8415 14.0972 21.716C14.825 21.5905 14.9348 21.9387 15.2831 21.8415C15.8917 21.694 16.996 20.4862 15.2078 20.0783Z" fill="white"/>
<path d="M41.244 15.6862C40.2181 14.3905 39.8605 13.8541 40.0393 12.96C40.1746 12.0661 40.1049 11.1531 39.8354 10.2902C39.8354 10.2902 40.9616 10.8109 41.9185 10.6447C42.3169 10.5756 42.6777 10.2713 42.5773 10.0392C42.9224 9.95447 43.1828 9.1827 42.4048 8.58976C42.4048 8.58976 43.051 8.42349 42.7593 7.61408C42.4675 6.80466 41.4573 5.58427 40.2777 5.81329C38.7875 6.10192 37.9687 6.99917 37.2691 7.91211C37.2691 7.91211 35.3459 8.60545 35.1671 10.2588C34.9883 11.9121 34.0816 13.0823 33.3193 14.2117C32.5569 15.3411 31.6659 16.4925 32.3373 17.9764C33.0087 19.4603 32.2401 21.7411 33.4479 23.0243C33.4479 23.0243 32.353 23.6517 32.1303 26.3749C31.9075 29.098 30.9224 30.218 30.7875 31.0588C30.6526 31.8996 31.6377 32.1066 31.9514 31.8964C32.2652 31.6862 33.7365 31.8964 34.0503 31.8964C34.364 31.8964 35.3459 32.2854 35.9734 31.8964C36.6008 31.5074 34.6746 30.6101 33.7773 30.2996C32.8801 29.989 33.4197 28.8251 33.9091 28.1035C34.3985 27.3819 34.8942 26.4941 35.6534 25.1984C36.4126 23.9027 35.7193 23.0745 36.1679 23.3443C36.6165 23.6141 37.8903 28.1725 38.8252 29.6658C39.2707 30.3811 38.8691 30.607 39.4526 31.1403C40.0361 31.6737 39.7224 32.436 40.9271 31.6768C42.1318 30.9176 42.182 31.6329 43.2079 30.9615C44.2338 30.2901 43.9232 29.9796 43.6534 29.6219C43.3836 29.2643 43.0259 29.3521 42.3138 29.6658C41.6016 29.9796 40.6605 29.9796 40.3938 28.5051C40.1271 27.0305 40.2589 26.538 39.9891 25.6439C39.7193 24.7498 38.9161 22.5066 38.204 20.9098C37.4918 19.3129 36.9491 18.2996 36.9491 18.2996C36.9613 17.9804 37.037 17.6668 37.1718 17.3772C37.3506 17.1545 37.931 19.2596 38.6903 19.8368C39.4495 20.4141 39.7632 20.9976 40.3436 21.9796C40.924 22.9615 40.8487 23.4384 41.7428 23.6172C42.6369 23.796 42.0565 23.9905 42.935 23.589C43.8134 23.1874 42.8471 22.3341 42.3985 21.6219C41.9499 20.9098 40.971 20.6807 40.6134 19.9247C40.2997 19.2439 39.3585 17.1388 39.0636 15.9184C39.1859 16.3607 40.2557 17.647 42.2667 18.629C43.4714 19.2188 43.6503 19.3443 43.8354 19.8368C44.0205 20.3294 43.5216 20.8188 44.2181 21.1325C44.3329 21.1834 44.4575 21.2084 44.5831 21.206C44.7086 21.2035 44.8321 21.1736 44.9449 21.1182C45.0576 21.0629 45.1569 20.9835 45.2356 20.8857C45.3144 20.7879 45.3708 20.6741 45.4008 20.5521C45.7805 19.3976 45.2816 19.5545 44.5224 18.3027C43.7632 17.0509 42.273 16.9788 41.244 15.6862Z" fill="white"/>
<path d="M29.8964 12.2999C29.8964 12.2999 30.4266 12.1618 30.1882 11.4936C29.9497 10.8253 29.7082 11.1171 29.1246 10.4646C28.5411 9.81201 28.0391 9.15946 27.076 9.39789C26.6337 9.5077 24.8799 9.9375 23.5811 11.2551C22.2823 12.5728 20.5066 13.4261 19.9419 14.4112C19.1952 15.6944 19.0258 17.4701 18.3733 18.5587C17.7207 19.6473 17.5482 19.9328 17.589 20.7799C17.6297 21.6269 16.7011 22.3202 18.1129 22.3767C19.5246 22.4332 19.3239 22.3924 19.3678 21.8277C19.4117 21.263 18.8846 21.5453 19.4086 20.3751C19.9325 19.205 19.8509 19.0042 20.5788 17.994C21.3066 16.9838 21.7897 15.8575 22.0313 15.8983C22.1882 15.9234 21.4039 17.0716 20.8329 18.4928C20.5191 19.2771 20.3842 20.4002 20.2556 20.8583C20.1144 21.3665 20.2305 22.7657 20.0266 23.9265C19.7129 25.7148 19.0854 27.5375 18.9631 29.3697C18.9631 29.3697 17.6423 30.5493 18.9631 31.0669C20.2839 31.5846 20.0486 31.9171 20.9929 31.8701C21.9372 31.823 22.1725 31.9171 22.1254 31.3995C22.0784 30.8818 21.0399 31.3053 20.7576 30.4081C20.4752 29.5108 22.2666 26.1885 22.596 25.6206C22.9254 25.0528 22.8439 24.0301 23.0823 23.321C23.3207 22.612 24.4376 26.1446 24.5317 27.0104C24.6258 27.8763 24.6258 28.6606 24.8141 29.3226C25.0023 29.9846 24.5003 30.314 24.8141 30.9728C25.1278 31.6316 25.0964 32.0677 26.0407 31.8763C26.985 31.685 28.4941 32.35 29.0148 31.9202C29.5356 31.4904 29.865 31.5406 29.6423 31.0199C29.4195 30.4991 28.5568 31.2583 27.6627 30.5963C26.7686 29.9344 26.5301 28.4912 26.5301 28.4912C26.5301 28.4912 26.8439 25.1689 26.4831 23.9422C26.1223 22.7155 26.3858 22.1728 25.6799 21.1814C24.9741 20.1901 24.7388 20.4504 25.1121 19.6504C25.1121 19.6504 26.367 17.6708 26.3921 17.7932C26.4172 17.9155 26.6462 20.0112 26.8501 20.2528C27.0541 20.4944 27.3615 20.2936 27.9262 21.194C28.4909 22.0944 27.3741 21.9626 28.1019 22.3893C28.8297 22.8159 29.5544 22.405 29.5544 21.9218C29.5534 21.3662 29.368 20.8266 29.0274 20.3877C28.6258 19.823 28.585 19.4999 28.1395 18.2889C27.7338 17.0247 27.4192 15.733 27.1984 14.4238C27.1419 14.1101 27.3772 13.7963 27.5654 13.5391C27.7631 13.7901 28.1929 14.2104 28.7388 14.1132C29.5293 13.9751 29.6454 14.3548 30.025 14.2512C30.6368 14.0567 31.8352 12.7453 29.8964 12.2999Z" fill="white"/>
<path d="M53.0274 31.2794C52.6101 31.4771 51.9764 30.8841 51.3803 30.743C50.7843 30.6018 50.1066 28.961 50.6337 27.8284C51.1607 26.6959 50.5709 25.1743 51.0509 24.6912C51.3396 24.3053 51.3396 23.8661 51.3051 22.6802C51.12 20.7979 51.7756 20.3586 51.8572 18.3226V18.2724L52.3341 15.8065C52.6169 14.7632 52.7614 13.6874 52.7639 12.6065C52.7639 10.3822 53.2909 7.72177 51.2172 6.0653C51.2172 6.0653 51.0729 5.30922 51.1827 5.12413C51.2925 4.93903 52.1239 5.66373 52.4752 5.12413C52.8266 4.58452 52.6196 3.64962 52.836 3.64962C53.0525 3.64962 53.1937 3.64962 53.0525 3.14765C52.9113 2.64569 52.7388 2.57354 52.6572 2.1406C52.5756 1.70765 52.5474 1.63864 51.9356 1.06138C51.6969 0.830739 51.4106 0.655076 51.0968 0.546692C50.7831 0.438307 50.4494 0.399822 50.1192 0.433929C49.4917 0.45589 48.3435 1.06138 48.4847 2.20648C48.6258 3.35158 48.6572 4.23314 48.6572 4.23314C48.6572 4.23314 48.8643 5.45354 48.5945 5.96491C47.8321 7.40491 48.0894 11.4802 48.3717 14.2598C47.5811 15.59 47.8039 15.9037 47.9105 17.7108C48.1019 20.8857 49.5858 21.2339 48.7168 25.8175C48.2902 28.1014 49.1058 27.5712 48.9772 29.2026C48.8486 30.8339 48.3498 31.3704 48.9113 31.5053C49.4729 31.6402 50.1945 32.1704 51.5341 32.1328C52.2417 32.1425 52.9452 32.0246 53.6109 31.7845C54.138 31.6528 53.4415 31.0849 53.0274 31.2794Z" fill="white"/>
<path d="M58.8692 0.449219H55.2959V31.9912H58.8692V0.449219Z" fill="white"/>
<path d="M62.0219 0.449219H60.3403V31.9912H62.0219V0.449219Z" fill="white"/>
<path d="M65.8087 0.449219H63.4966V31.9912H65.8087V0.449219Z" fill="white"/>
<path d="M68.331 0.449219H67.0698V31.9912H68.331V0.449219Z" fill="white"/>
<path d="M70.6464 0.449219H69.3853V31.9912H70.6464V0.449219Z" fill="white"/>
</g>
<defs>
<clipPath id="clip0">
<rect width="71.2157" height="32" fill="white" transform="translate(-0.450195)"/>
</clipPath>
</defs>
</svg>
